<svg xmlns="http://www.w3.org/2000/svg" width="255.027" height="66.143" viewBox="0 0 255.027 66.143"><path fill="#47997F" d="M46.8 2L20.3 26.6l-4.1 2.9 4.1-2.9L.2 9.8l.1 34.4.8.3L20 66.1l27.5-18.8-14.4-11.5 14.4 11.5.1-46.8-.8 1.5z"/><path fill="#43A47D" d="M9.36 35.84L.095 9.563V44.5l9.267-8.66z"/><path fill="#C6F865" d="M.094 9.564l20.19 16.056L9.346 35.84.094 9.563z"/><path fill="#47997F" d="M9.36 35.84l10.673 30.304L.093 44.487l9.268-8.648z"/><path fill="#417675" d="M33.073 35.78l-13.04 30.36L9.33 35.84l10.966-10.222L33.073 35.78z"/><path fill="#70A86A" d="M20 66.1l27.8-18.5L33 35.8z"/><path fill="#C1F668" d="M33 35.8l14.8 11.8V0z"/><path fill="#3ADFDC" d="M33.03 35.78L20.288 25.62 47.83 0l-14.8 35.78z"/><path class="name" fill="#fff" d="M251.37 24.443c-1.743-.27-3.514-.476-5.272-.485-.893-.01-1.686.053-2.318 1.3-.65 1.24-.27 2.7.9 3.706.377.3.8.6 1.2.805 1.342.7 2.7 1.4 4.1 2 3.86 1.8 5.3 4 5.1 7.84-.213 4.03-2.383 7.033-6.105 8.17-6.506 1.98-11.096-1.242-11.096-1.242s.306-1.938.487-2.548c.45-1.485.762-1.73 2.215-1.227 4.215 1.5 7.5.2 7.988-.207 1.157-.987 2.198-3.12-.236-4.688-.508-.646-4.49-2-6.98-3.85-2.483-1.848-3.645-4.664-2.937-7.986.705-3.293 2.562-5.524 5.79-6.438 1.988-.558 4.208-.48 5.972-.217 2.37.4 4 1.1 4 1.1s-.216 1.794-.454 2.646c-.36 1.277-.926 1.577-2.326 1.32zm-21.106-9.06c-2.094 0-3.02-.963-3.027-3.134-.006-1.9 1.404-2.96 3.938-2.96 2.033 0 3.1 1.1 3.1 3.15-.07 1.86-1.475 2.96-3.975 2.942zm-8.21 28.394c.26-.044.517-.104.958-.197.18 1.1.7 3.5.7 3.478s-.496.262-.754.4c-2.45.98-4.992 1.337-7.562.604-1.83-.52-2.886-1.896-3.254-3.712-.216-1.033-.285-2.106-.29-3.17-.028-5.1-.016-10.2-.016-15.302v-1.665h-3.584c0-1.408-.04-2.536-.04-4.01h3.7V17.27l.063-.046c-.02-1.088.113-2.084 1.17-2.746 1.188-.745 2.94-.77 4.645-1.198v6.922h5.607v1.062h-.004c-.002.97-.006 1.843-.006 2.943h-5.604V42.56c.494 1.44 1.817 1.64 4.317 1.24zm-25.742-8.44c-.33-.002-.797-.022-1.022-.27-.147-.158-.375-2.012-.26-2.658.135-.72.42-1.066 1.07-1.066.65 0 1.772-.004 3.526-.004.033-1.883.02-3.694-.455-5.354-.728-2.533-4.187-3.38-6.093-1.542-.682.654-.884 1.342-1.02 1.927-.98 4.21-.67 8.2.1 12.406.728 4.1 3.3 5.6 7.6 4.7.87-.168 1.73-.398 2.59-.64 1.155-.318 1.8.1 2 1.268.495 2.1.3 2.528-1.694 3.2-2.604.908-5.305 1.208-8.027.947-3.762-.354-6.223-2.547-7.463-5.985-2.307-6.396-2.5-12.77.9-18.89 2.854-5.118 11.29-6.132 14.777-1.677 1.155 1.5 1.8 3.6 2.1 5.48.353 2.6.1 5.3.1 8.1-3.574.022-5.24.122-8.74.06zm-14.898-7.487V47.852h-5.88v-21.3s-.163-2.667-2.937-2.66c-2.935.005-4.93 1.65-5.61 2.485v21.476h-5.61V19.367s2.518-.854 4 0c1.062.6 1.5 2.4 1.6 3 .598-.547 2.29-1.98 4.312-2.71 2.27-.814 5.073-.53 5.073-.53s1.646.2 2.7 1.1c.687.6 1.7 2.3 1.9 2.93.41 1.6.5 3.4.5 4.26h.002v.083c-.044.3-.065.5-.065.35zM150.19 56.067c-7.063 2.02-12.425-.495-12.425-.495s.396-2.73.53-3.99c1.978.4 3.9.7 5.9.698 5.602 0 6.2-1.09 6.2-2.222v-5.493c-.24.27-.488.518-.656.67-4.124 3.853-10.238 2.792-12.53-2.324-.81-1.822-1.27-3.886-1.493-5.88-.474-4.25-.46-8.522 1.183-12.576 2.13-5.285 7.533-7.033 12.258-4.024.533.3 1.5 1.2 2.1 1.7.144-.72.52-2.146 1.382-2.67 1.354-.824 3.7 0 3.7 0v.064c.002 0 0 0 0 0 .015 9.5 0 29.1 0 29.12s-.006.214-.016.316C156.152 52.9 154 55 150.2 56.067zm.162-29.667c-.256-1.072-1.043-1.55-2.56-2.062-1.07-.365-2.954-.52-3.534-.168-1.193.725-1.72 1.688-1.95 2.7-1.015 4.387-1.01 7.704-.145 12.113.77 3.9 4.2 5.1 7.3 2.59.478-.383.838-1.146.896-1.78V26.352h-.008zm-24.777 19.447c-1.822.78-3.598 1.885-5.52 2.3-4.65 1.004-8.154-2.27-8.585-6.986-.615-6.728 2.277-9.445 9.012-9.77 1.125-.055 1 .7 1.1 1.705.1 1 .1 1.442-.646 1.7-.773.28-1.997.33-2.146.354-1.562.27-1.747 1.35-1.95 2.195-.275 1.146-.074 2.4.2 3.6.315 1.5 2 3 3.5 2.867.657-.06 1.322-.2 1.95-.41 2.107-.693 2.63-1.132 2.72-2.895.013-.264.047-8.17 0-12.047 0-.022-.16-1.792-.535-2.933-.366-1.104-.932-1.575-2.315-1.655-1.23-.07-2.478.02-3.703.165-.92.104-1.813.423-2.73.61-.852.18-2.006.206-2.477-.187-1.205-1.006-.802-3.46-.802-3.46s.518-.147.646-.196c4.23-1.7 8.58-2.303 13.053-1.188 3.336.8 4.5 3.5 4.5 6.463.158 7.3.1 14.5.1 21.893-3.47 1.027-4.447.527-5.347-2.126zM107.24 27.85V47.852h-5.88V26.286s-.148-2.396-2.403-2.396c-2.254 0-5.88 2.062-5.88 2.396v21.568h-5.61V26.285s-.148-2.396-2.403-2.396c-2.254 0-5.878 2.062-5.878 2.396v21.568H73.57V19.366s2.515-.854 4 0c1.297.7 1.6 3.2 1.6 3.19s2.017-2.02 4.542-2.93c2.27-.815 5.078-.53 5.078-.53s1.377.2 2.4 1.063c1.106.9 1.9 2.4 1.9 2.397s2.02-2.02 4.543-2.93c2.27-.816 5.077-.53 5.077-.53s1.646.2 2.7 1.062c.688.6 1.2 1.5 1.3 2.13.61 2.41.49 6.01.49 5.56zm125.147-8.15c1.57.6 1.2 2.8 1.2 2.842v25.293h-5.88V20.1c-.002-.002 2.893-1.102 4.693-.384z"/></svg>
